<?xml version="1.0" encoding="UTF-8" standalone="no"?><!DOCTYPE svg PUBLIC "-//W3C//DTD SVG 1.1//EN" "http://www.w3.org/Graphics/SVG/1.1/DTD/svg11.dtd"><svg width="100%" height="100%" viewBox="0 0 361 112" version="1.1" xmlns="http://www.w3.org/2000/svg" xmlns:xlink="http://www.w3.org/1999/xlink" xml:space="preserve" xmlns:serif="http://www.serif.com/" style="fill-rule:evenodd;clip-rule:evenodd;stroke-linejoin:round;stroke-miterlimit:2;"><g id="Lutris-Logo" serif:id="Lutris Logo"><path d="M20.791,55.675c0.047,-0.373 1.169,-8.295 11.507,-9.196c0.003,-0.001 0.005,-0.001 0.007,-0.003c0.144,-0.099 6.039,-4.115 10.128,-1.38c0.001,0 0.001,0 0.001,0.001c0.02,0.016 1.901,1.558 -0.201,2.974c-0.012,0.008 -0.013,0.026 0.001,0.031c0.401,0.166 4.727,2.004 7.798,5.514l0.001,0c0.011,0.015 4.313,5.402 12.434,5.066c0,0 7.613,0.237 13.546,-7.034c0,0 8.888,-13.224 21.244,-18.643c0,0 12.356,-6.07 30.349,-2.818c0,0 20.16,3.468 21.439,21.587c0,0 1.973,20.684 -24.474,23.719c0,0 -11.923,1.084 -16.512,-5.758c0,0 -4.145,-5.987 5.526,-12.895c0,0 8.6,-5.842 17.488,-3.892c0.001,0 0.001,0 0.002,0.001c0.028,0.011 1.455,0.594 1.045,1.701c-0.179,0.483 -0.632,0.811 -1.142,0.88c-2.503,0.339 -11.393,1.321 -14.861,6.522l0,0.001c-0.015,0.025 -4.094,6.932 9.902,4.458c0,0 13.943,-2.507 12.21,-15.078c-0.001,-0.001 -0.001,-0.002 -0.001,-0.003c-0.031,-0.057 -1.084,-4.118 -5.853,-5.635c-3.902,-1.518 -10.622,-2.602 -18.426,0.65c-0.001,0 -9.538,3.902 -14.18,15c0,0 -5.113,12.747 -13.765,15.636c-0.017,0.005 -0.013,0.029 0.004,0.032c0.687,0.135 7.548,1.621 3.169,6.437c0,0 -11.973,12.895 -35,0.461c0,0 -5.065,-2.763 -15.197,-12.434c-0.017,-0.019 -6.978,-7.57 -11.972,-5.987l-0.002,0c-0.04,0.018 -7.372,3.201 -9.669,-4.601c-0.001,-0.003 -0.001,-0.004 -0.003,-0.006c-0.067,-0.073 -2.215,-2.419 -0.935,-3.699c0,0 1.728,-1.512 4.375,-1.595c0.009,0 0.016,-0.005 0.017,-0.014" style="fill:#469b91;fill-rule:nonzero;"/><path d="M331.66,84.366c-0.488,0.525 -2.623,1.864 -10.332,-1.467c2.365,-4.423 4.366,-10.559 5.987,-18.368c0.781,1.674 1.605,3.552 2.358,5.49c3.331,8.569 3.211,13.029 1.987,14.345m-157.938,-50.378c2.513,-14.339 5.494,-16.446 6.024,-16.71c0.909,1.016 1.236,6.373 0.671,11.156c-0.002,0.013 -0.003,0.026 -0.005,0.039c-1.227,11.859 -4.687,22.752 -8.605,31.826c-0.026,-10.12 1.072,-20.644 1.915,-26.311m170.012,42.26c-1.336,-0.402 -2.746,0.355 -3.149,1.691c-0.89,2.953 -2.063,5.206 -3.506,6.742c1.06,-3.705 0.158,-9.167 -2.714,-16.542c-2.595,-6.662 -5.859,-12.445 -5.997,-12.688c-0.529,-0.935 -1.591,-1.433 -2.649,-1.241c-1.057,0.191 -1.878,1.03 -2.046,2.092c-2.497,15.776 -5.854,23.137 -8.229,26.534c-2.197,3.141 -3.797,3.314 -4.002,3.323c-0.249,-0.039 -0.503,-0.041 -0.753,-0.005c-0.308,0.044 -0.807,0.037 -1.553,-0.531c-4.918,-3.745 -8.827,-21.327 -10.136,-31.53c-0.173,-1.357 -1.397,-2.328 -2.757,-2.194c-1.362,0.136 -2.368,1.33 -2.27,2.695c1.584,22.171 -2.945,28.56 -5.785,30.394c-3.032,1.959 -6.505,0.426 -7.185,0.091c-1.807,-1.364 -2.789,-2.993 -2.999,-4.973c-0.52,-4.898 3.819,-10.956 5.532,-12.875c0.859,-0.957 0.863,-2.406 0.009,-3.368c-2.392,-2.691 -14.182,-11.363 -15.518,-12.343c-0.739,-0.542 -1.714,-0.642 -2.549,-0.259c-0.834,0.383 -1.394,1.187 -1.465,2.102c-2.364,30.49 -9.304,32.41 -9.754,32.495c-0.163,-0.018 -0.328,-0.02 -0.492,-0.006c-0.393,0.031 -0.946,-0.021 -1.711,-0.737c-1.901,-1.782 -5.235,-7.757 -7.02,-27.704l8.627,0.101l0.029,-0c1.383,-0 2.511,-1.112 2.527,-2.498c0.016,-1.396 -1.102,-2.54 -2.498,-2.557l-9.082,-0.105c-0.206,-3.031 -0.355,-6.001 -0.461,-8.778c0.084,-5.164 0.007,-10.72 -0.231,-16.654c-0.054,-1.357 -1.17,-2.427 -2.524,-2.427c-0.01,-0 -0.019,-0 -0.028,0.001c-1.368,0.014 -2.475,1.114 -2.5,2.481c-0.002,0.095 -0.125,7.316 0.23,16.728c-0.051,3.078 -0.158,5.933 -0.314,8.581l-9.629,-0.112l-0.03,-0c-1.382,-0 -2.511,1.112 -2.527,2.498c-0.016,1.396 1.102,2.54 2.498,2.556l9.312,0.109c-1.588,17.46 -5.455,24.349 -8.168,27.058c-1.59,1.588 -2.798,1.736 -3.082,1.748c-0.183,-0.042 -0.2,-0.02 -0.425,-0.011c-1.173,0.052 -2.167,-0.367 -3.122,-1.317c-4.46,-4.438 -5.748,-17.481 -5.963,-26.294c0.045,-1.961 0.053,-4.007 0.022,-6.139c-0.019,-1.369 -1.126,-2.474 -2.496,-2.491l-0.031,-0c-1.356,-0 -2.473,1.072 -2.525,2.43c-0.007,0.162 -0.093,2.503 -0.02,5.958c-0.41,18.731 -4.255,24.872 -6.658,26.881c-1.365,1.141 -2.467,1.079 -2.708,1.049c-0.056,-0.019 -0.024,-0.004 -0.126,-0.025c-3.781,-0.792 -6.477,-6.767 -7.594,-16.827c-0.587,-5.292 -0.593,-10.525 -0.514,-13.701c0.051,-1.031 0.094,-2.083 0.129,-3.156c0.044,-1.378 -1.023,-2.537 -2.4,-2.606c-1.38,-0.072 -2.554,0.978 -2.647,2.354c-0.01,0.132 -0.092,1.393 -0.141,3.385c-1.398,27.481 -8.362,30.1 -8.787,30.232c-0.007,0.001 -0.014,0.002 -0.021,0.003c-1.732,0.235 -3.094,-0.216 -4.286,-1.423c-2.474,-2.505 -3.851,-7.511 -4.525,-13.519c5.132,-9.968 11.339,-25.002 13.091,-41.914c0.036,-0.306 0.372,-3.297 0.3,-6.54c-0.117,-5.292 -1.235,-8.354 -3.513,-9.607c-0.948,-0.599 -2.555,-0.996 -4.302,-0.304c-4.036,1.598 -7.041,8.333 -9.186,20.589c-0.003,0.021 -0.006,0.042 -0.01,0.063c-0.065,0.438 -1.606,10.874 -1.915,22.764c-0.136,5.22 -0.011,9.868 0.374,13.934c-5.275,9.94 -10.157,16.148 -10.575,16.662c-0.82,0.808 -1.006,2.102 -0.376,3.125c0.732,1.188 2.289,1.557 3.477,0.826c0.626,-0.386 2.069,-2.236 4.289,-5.5c1.169,-1.719 2.725,-4.112 4.463,-7.061c1.087,4.535 2.693,7.888 4.811,10.033c2.294,2.323 5.24,3.321 8.521,2.886c0.914,-0.101 4.064,-0.827 7.028,-5.953c1.158,-2.003 2.161,-4.442 3.01,-7.308c1.951,7.935 5.375,12.466 10.224,13.502c0.705,0.165 3.618,0.641 6.787,-1.793c2.707,-2.078 4.799,-5.644 6.269,-10.67c1.224,4.411 2.88,7.669 4.958,9.737c1.897,1.888 4.217,2.848 6.725,2.791c0.96,0.064 3.55,-0.057 6.477,-2.681c3.565,-3.197 6.305,-8.955 8.144,-17.116c0.061,-0.273 0.121,-0.547 0.181,-0.826c1.619,9.352 3.936,15.368 7.001,18.24c1.57,1.472 3.416,2.2 5.346,2.101c0.824,0.049 2.484,-0.083 4.396,-1.522c5.152,-3.877 8.614,-14.332 10.308,-31.103c3.479,2.613 7.37,5.619 9.577,7.511c-2.196,2.978 -5.868,8.94 -5.251,14.832c0.365,3.491 2.113,6.401 5.193,8.648c0.083,0.061 0.169,0.116 0.259,0.166c0.266,0.148 6.566,3.577 12.439,-0.161c3.719,-2.368 6.221,-7 7.495,-13.844c1.881,6.054 4.418,11.705 7.712,14.213c1.54,1.173 3.252,1.705 4.976,1.554c0.88,0.063 2.578,-0.06 4.604,-1.42c0.917,-0.616 1.799,-1.409 2.644,-2.376c2.445,1.703 7.645,4.8 13.123,4.8c1.254,-0 2.523,-0.162 3.777,-0.541c4.767,-1.439 8.208,-5.565 10.227,-12.263c0.403,-1.337 -0.354,-2.747 -1.691,-3.15" style="fill:#469b91;fill-rule:nonzero;"/><path d="M295.353,47.28c1.891,0 3.424,-1.533 3.424,-3.424c-0,-1.891 -1.533,-3.424 -3.424,-3.424c-1.891,0 -3.424,1.533 -3.424,3.424c-0,1.891 1.533,3.424 3.424,3.424" style="fill:#469b91;fill-rule:nonzero;"/></g></svg>